<?xml version="1.0" encoding="UTF-8" standalone="no"?>
<!DOCTYPE svg PUBLIC "-//W3C//DTD SVG 1.1//EN" "http://www.w3.org/Graphics/SVG/1.1/DTD/svg11.dtd">
<svg xmlns="http://www.w3.org/2000/svg" version="1.1" viewBox="0 0 224 224">
<g stroke-width="2.00" fill="none" stroke-linecap="butt">
<path stroke="#81bee3" vector-effect="non-scaling-stroke" d="
  M 221.81 11.08
  Q 222.57 11.00 222.09 10.39
  Q 220.13 7.91 221.53 6.52
  C 222.14 5.91 223.37 4.47 221.02 4.87
  Q 218.39 5.32 216.80 2.96
  A 1.16 1.16 -42.5 0 0 214.93 2.88
  C 213.31 4.91 207.45 4.72 210.31 6.69
  A 1.56 1.27 41.2 0 1 210.69 8.94
  Q 209.68 9.74 209.53 10.78
  A 0.67 0.67 87.9 0 0 210.33 11.53
  Q 213.56 10.87 214.93 13.67
  A 0.72 0.72 -40.3 0 0 216.16 13.77
  Q 217.77 11.52 221.81 11.08"
/>
<path stroke="#81bee3" vector-effect="non-scaling-stroke" d="
  M 68.55 45.33
  C 67.59 38.71 58.73 36.40 53.27 37.25
  Q 51.30 37.55 50.75 39.46
  C 46.43 54.45 41.45 71.75 40.77 87.25
  A 1.66 1.52 -62.1 0 0 41.01 88.17
  Q 44.22 93.27 50.09 91.70
  A 0.85 0.76 -3.7 0 0 50.69 91.09
  L 52.75 80.30
  A 0.79 0.69 -89.2 0 1 53.29 79.70
  Q 57.15 78.83 61.70 79.62
  A 0.89 0.85 -3.6 0 1 62.39 80.20
  L 64.45 86.34
  Q 65.04 88.10 66.74 88.50
  C 68.68 88.95 71.82 88.76 73.41 88.04
  Q 74.91 87.37 74.50 85.00
  Q 73.31 78.19 68.55 45.33"
/>
<path stroke="#81bee3" vector-effect="non-scaling-stroke" d="
  M 93.53 74.91
  C 97.58 80.03 102.49 87.24 109.03 89.59
  A 1.05 1.05 38.6 0 0 109.94 89.49
  Q 112.57 87.80 113.17 84.74
  A 1.65 1.38 41.7 0 0 113.03 83.79
  Q 109.73 77.17 104.71 71.00
  Q 103.40 69.40 104.68 67.77
  C 108.12 63.41 113.79 59.09 113.10 52.52
  C 111.34 35.67 94.41 34.47 82.02 40.10
  A 0.81 0.80 78.4 0 0 81.55 40.82
  Q 81.06 60.69 81.47 80.57
  C 81.51 82.49 81.02 84.85 82.44 86.56
  Q 85.59 90.37 90.52 90.00
  A 1.58 1.53 88.8 0 0 91.94 88.47
  L 92.31 75.30
  Q 92.36 73.45 93.53 74.91"
/>
<path stroke="#81bee3" vector-effect="non-scaling-stroke" d="
  M 130.96 39.35
  Q 126.03 36.21 120.53 37.35
  A 0.99 0.98 84.8 0 0 119.75 38.29
  Q 119.14 62.25 119.74 86.25
  A 1.45 1.39 -66.5 0 0 120.07 87.14
  Q 124.26 92.12 130.05 89.70
  A 2.36 2.35 78.8 0 0 131.50 87.52
  L 131.50 40.34
  A 1.18 1.15 -74.2 0 0 130.96 39.35"
/>
<path stroke="#81bee3" vector-effect="non-scaling-stroke" d="
  M 163.56 41.19
  C 159.30 37.61 149.13 34.49 145.31 40.56
  C 137.79 52.53 132.94 76.33 146.06 86.69
  Q 150.15 89.91 155.97 90.24
  C 167.16 90.87 171.47 72.45 171.70 64.19
  C 171.96 55.12 170.46 46.97 163.56 41.19"
/>
<path stroke="#81bee3" vector-effect="non-scaling-stroke" d="
  M 184.01 37.43
  A 0.43 0.43 0.0 0 0 183.58 37.00
  L 176.68 37.00
  A 0.43 0.43 0.0 0 0 176.25 37.43
  L 176.25 56.57
  A 0.43 0.43 0.0 0 0 176.68 57.00
  L 183.58 57.00
  A 0.43 0.43 0.0 0 0 184.01 56.57
  L 184.01 37.43"
/>
<path stroke="#81bee3" vector-effect="non-scaling-stroke" d="
  M 201.58 78.69
  Q 197.86 77.35 195.59 74.13
  Q 193.64 71.37 189.91 73.80
  Q 187.86 75.13 188.36 77.52
  C 189.13 81.22 192.15 84.29 195.27 86.52
  C 210.31 97.25 225.20 78.67 212.81 66.94
  C 208.35 62.72 203.60 60.06 202.41 53.11
  C 202.22 51.95 202.88 49.14 203.77 49.01
  A 1.60 1.59 -6.7 0 1 205.58 50.43
  Q 206.42 59.23 214.32 58.69
  Q 216.10 58.57 217.02 57.05
  Q 218.13 55.22 217.96 52.49
  Q 217.36 43.35 209.76 39.34
  C 203.44 36.00 200.24 36.39 195.38 41.84
  C 190.45 47.37 189.06 54.49 192.74 61.11
  C 194.93 65.06 205.57 72.28 204.91 76.71
  Q 204.45 79.74 201.58 78.69"
/>
<path stroke="#81bee3" vector-effect="non-scaling-stroke" d="
  M 8.69 38.92
  Q 7.52 41.65 7.65 44.60
  C 8.26 58.23 7.75 72.14 7.75 85.68
  A 1.50 1.49 -78.8 0 0 8.67 87.06
  C 14.00 89.23 19.41 92.11 24.50 87.50
  C 32.09 80.62 37.51 71.68 37.45 61.25
  C 37.36 46.45 25.28 35.67 10.61 37.49
  A 2.42 2.41 8.2 0 0 8.69 38.92"
/>
<path stroke="#81bee3" vector-effect="non-scaling-stroke" d="
  M 166.43 122.77
  C 165.45 119.75 167.94 111.54 168.75 108.24
  Q 169.07 106.98 168.02 107.58
  L 165.63 108.98
  A 2.25 1.90 -34.8 0 1 162.98 108.73
  C 158.41 103.50 151.57 113.67 150.72 117.24
  C 148.54 126.44 136.77 127.48 134.50 118.00
  C 133.03 111.86 134.64 100.24 140.71 96.42
  C 147.48 92.15 145.88 110.23 139.63 106.82
  Q 138.24 106.07 138.48 107.63
  Q 139.18 112.26 142.77 111.61
  C 150.81 110.18 152.09 93.76 142.55 93.86
  C 126.48 94.02 120.61 131.67 141.81 127.72
  Q 146.02 126.93 148.78 124.02
  A 1.14 1.13 55.8 0 1 150.66 124.38
  Q 152.56 129.14 157.46 126.82
  A 3.84 3.82 0.2 0 0 159.29 125.01
  C 160.77 121.97 161.49 121.46 161.75 124.88
  Q 161.95 127.45 164.50 127.93
  A 1.52 1.31 -50.9 0 0 165.45 127.76
  Q 169.12 125.76 171.63 122.36
  C 173.54 119.78 173.84 122.06 173.65 123.45
  Q 172.62 131.05 172.10 138.70
  A 0.45 0.45 -88.3 0 0 172.56 139.19
  Q 174.56 139.16 176.36 138.30
  A 0.95 0.92 81.0 0 0 176.88 137.56
  L 178.01 128.31
  A 0.54 0.54 4.6 0 1 178.57 127.84
  Q 183.65 127.99 186.70 123.61
  Q 187.53 122.42 188.13 123.74
  C 190.63 129.20 195.88 128.71 199.84 125.35
  C 200.81 124.53 204.37 120.85 202.30 120.55
  A 1.14 0.71 -56.7 0 0 201.47 120.93
  C 198.68 123.82 193.35 126.43 192.84 119.81
  A 0.63 0.60 -10.5 0 1 193.30 119.18
  Q 197.80 117.85 200.19 114.44
  C 203.29 110.01 197.86 105.46 193.81 108.31
  Q 188.70 111.91 187.68 118.45
  C 187.24 121.28 184.14 124.96 180.94 123.99
  C 177.49 122.95 179.74 116.25 180.47 112.31
  A 1.94 1.84 -20.9 0 1 180.89 111.43
  C 185.02 106.65 189.03 101.05 186.20 94.45
  A 0.73 0.73 77.1 0 0 185.50 94.01
  C 177.13 94.35 175.95 107.55 175.28 113.71
  Q 175.16 114.87 174.48 115.82
  Q 171.21 120.43 167.93 123.20
  A 0.94 0.94 -29.0 0 1 166.43 122.77"
/>
<path stroke="#81bee3" vector-effect="non-scaling-stroke" d="
  M 202.95 96.41
  C 198.52 95.44 197.27 100.74 195.89 103.66
  Q 195.05 105.46 196.78 104.48
  Q 201.35 101.88 203.45 97.42
  A 0.73 0.72 18.9 0 0 202.95 96.41"
/>
<path stroke="#81bee3" vector-effect="non-scaling-stroke" d="
  M 21.79 153.20
  C 19.97 155.68 21.37 157.27 20.84 160.26
  A 0.94 0.78 -67.4 0 0 21.10 161.10
  Q 21.93 161.82 22.80 161.25
  A 0.76 0.62 67.6 0 0 23.04 160.46
  Q 22.07 157.26 23.27 154.11
  C 23.49 153.52 25.66 151.70 22.86 152.47
  A 1.99 1.98 -79.2 0 0 21.79 153.20"
/>
<path stroke="#81bee3" vector-effect="non-scaling-stroke" d="
  M 46.81 152.44
  C 44.65 151.39 45.90 158.24 45.93 159.19
  A 1.43 0.55 -45.3 0 1 45.57 160.02
  Q 45.03 160.77 47.23 161.29
  Q 48.34 161.56 47.90 160.50
  Q 47.03 158.43 47.75 156.00
  Q 48.55 153.28 46.81 152.44"
/>
<path stroke="#81bee3" vector-effect="non-scaling-stroke" d="
  M 125.26 153.86
  Q 128.21 152.48 125.44 152.43
  A 1.63 1.49 25.0 0 0 124.52 152.72
  C 121.95 154.59 123.74 157.55 122.93 160.04
  A 0.61 0.57 -66.5 0 0 123.18 160.75
  C 126.43 162.57 124.73 159.60 124.81 158.52
  Q 124.94 156.54 124.84 154.57
  A 0.76 0.74 76.4 0 1 125.26 153.86"
/>
<path stroke="#81bee3" vector-effect="non-scaling-stroke" d="
  M 133.32 152.60
  Q 130.38 151.64 130.89 153.06
  C 131.74 155.43 131.71 157.84 131.12 160.27
  A 0.77 0.65 -68.8 0 0 131.39 161.06
  Q 132.15 161.56 133.00 161.18
  A 0.92 0.60 84.8 0 0 133.39 160.44
  L 133.72 153.27
  A 0.71 0.58 -81.2 0 0 133.32 152.60"
/>
<path stroke="#81bee3" vector-effect="non-scaling-stroke" d="
  M 153.0093 152.9665
  A 0.95 0.76 2.2 0 0 152.0892 152.1706
  A 0.95 0.76 2.2 0 0 151.1107 152.8935
  A 0.95 0.76 2.2 0 0 152.0308 153.6894
  A 0.95 0.76 2.2 0 0 153.0093 152.9665"
/>
<path stroke="#81bee3" vector-effect="non-scaling-stroke" d="
  M 176.47 160.15
  C 172.47 158.64 173.47 149.88 178.62 154.17
  Q 179.06 154.53 179.11 154.01
  Q 179.29 152.21 175.70 152.28
  Q 173.79 152.31 172.90 154.00
  C 170.46 158.66 174.64 163.90 179.22 159.96
  Q 180.75 158.64 177.94 160.07
  A 1.81 1.79 -47.9 0 1 176.47 160.15"
/>
<path stroke="#81bee3" vector-effect="non-scaling-stroke" d="
  M 188.80 152.94
  C 188.14 154.40 186.41 162.10 189.47 161.11
  A 0.59 0.55 75.7 0 0 189.83 160.45
  Q 189.22 157.37 189.94 154.30
  A 1.45 1.28 -14.7 0 1 190.46 153.53
  Q 192.20 152.23 189.86 152.25
  A 1.17 1.16 -77.8 0 0 188.80 152.94"
/>
<path stroke="#81bee3" vector-effect="non-scaling-stroke" d="
  M 194.30 153.94
  Q 195.18 153.65 195.45 152.92
  A 0.38 0.36 8.1 0 0 195.07 152.44
  C 190.29 152.67 192.52 157.75 191.67 160.49
  A 0.47 0.47 19.3 0 0 191.95 161.07
  C 194.65 162.10 193.75 160.29 193.74 159.13
  Q 193.71 156.84 193.79 154.56
  A 0.76 0.66 -9.9 0 1 194.30 153.94"
/>
<path stroke="#81bee3" vector-effect="non-scaling-stroke" d="
  M 72.0402 153.0393
  A 0.53 0.53 0.0 0 0 71.4965 152.5234
  L 70.8768 152.5396
  A 0.53 0.53 0.0 0 0 70.3608 153.0833
  L 70.5598 160.6807
  A 0.53 0.53 0.0 0 0 71.1035 161.1966
  L 71.7232 161.1804
  A 0.53 0.53 0.0 0 0 72.2392 160.6367
  L 72.0402 153.0393"
/>
<path stroke="#81bee3" vector-effect="non-scaling-stroke" d="
  M 149.2120 152.8243
  A 0.27 0.27 0.0 0 0 148.9401 152.5562
  L 147.8201 152.5640
  A 0.27 0.27 0.0 0 0 147.5520 152.8359
  L 147.6080 160.8557
  A 0.27 0.27 0.0 0 0 147.8799 161.1238
  L 148.9999 161.1160
  A 0.27 0.27 0.0 0 0 149.2680 160.8441
  L 149.2120 152.8243"
/>
<path stroke="#81bee3" vector-effect="non-scaling-stroke" d="
  M 137.47 154.05
  A 0.79 0.79 25.4 0 0 136.25 154.48
  Q 135.36 157.75 136.61 160.74
  A 0.86 0.61 73.7 0 0 137.30 161.28
  Q 138.28 161.22 137.44 158.34
  A 2.29 2.27 -37.7 0 1 137.68 156.52
  Q 138.67 154.90 137.47 154.05"
/>
<path stroke="#81bee3" vector-effect="non-scaling-stroke" d="
  M 43.06 160.19
  Q 41.90 158.23 43.03 155.71
  A 0.87 0.76 -54.2 0 0 42.95 154.85
  C 40.05 151.21 41.08 159.67 41.81 161.00
  A 0.72 0.66 68.8 0 0 42.56 161.37
  Q 43.62 161.13 43.06 160.19"
/>
<path stroke="#81bee3" vector-effect="non-scaling-stroke" d="
  M 110.11 160.59
  C 106.51 159.90 107.32 155.74 108.83 155.85
  A 0.71 0.69 -2.1 0 1 109.46 156.42
  Q 109.54 156.85 109.43 157.28
  A 0.86 0.67 -65.6 0 0 109.62 158.09
  Q 111.26 159.45 111.25 157.00
  Q 111.24 154.46 108.19 155.19
  C 103.55 156.30 105.28 162.30 110.12 161.28
  Q 111.81 160.92 110.11 160.59"
/>
<path stroke="#81bee3" vector-effect="non-scaling-stroke" d="
  M 30.55 158.22
  A 3.04 3.04 0.0 0 0 27.51 155.18
  A 3.04 3.04 0.0 0 0 24.47 158.22
  A 3.04 3.04 0.0 0 0 27.51 161.26
  A 3.04 3.04 0.0 0 0 30.55 158.22"
/>
<path stroke="#81bee3" vector-effect="non-scaling-stroke" d="
  M 49.00 155.95
  Q 50.05 158.07 49.60 160.51
  A 0.68 0.58 -74.8 0 0 49.94 161.22
  C 52.04 162.12 51.90 156.43 49.74 155.24
  Q 48.25 154.43 49.00 155.95"
/>
<path stroke="#81bee3" vector-effect="non-scaling-stroke" d="
  M 54.73 155.19
  Q 49.75 160.12 56.11 161.19
  C 56.88 161.32 59.46 160.18 56.00 160.18
  Q 54.66 160.18 54.69 159.01
  Q 54.70 158.46 54.57 158.03
  Q 54.19 156.80 55.04 155.75"
/>
<path stroke="#81bee3" vector-effect="non-scaling-stroke" d="
  M 55.04 155.75
  Q 56.56 156.06 56.59 157.44
  A 0.79 0.63 -84.1 0 0 57.03 158.13
  C 59.13 158.83 58.73 155.24 54.73 155.19"
/>
<path stroke="#ffffff" vector-effect="non-scaling-stroke" d="
  M 55.04 155.75
  L 54.73 155.19"
/>
<path stroke="#057cc3" vector-effect="non-scaling-stroke" d="
  M 65.54 161.50
  Q 66.11 161.58 66.50 161.21"
/>
<path stroke="#81bee3" vector-effect="non-scaling-stroke" d="
  M 66.50 161.21
  C 69.68 161.29 70.95 154.22 63.81 155.55
  A 0.63 0.62 78.1 0 0 63.32 156.31
  Q 64.07 159.37 63.42 162.70
  A 0.63 0.56 -75.1 0 0 63.77 163.40
  Q 65.30 163.92 65.54 161.50"
/>
<path stroke="#83bddf" vector-effect="non-scaling-stroke" d="
  M 66.50 161.21
  Q 67.03 159.76 67.19 158.25
  C 67.33 156.96 65.91 154.17 65.00 157.50
  Q 64.77 158.33 65.54 161.50"
/>
<path stroke="#81bee3" vector-effect="non-scaling-stroke" d="
  M 75.71 159.45
  Q 75.44 157.85 75.90 156.29
  A 0.85 0.74 -83.5 0 1 76.54 155.70
  C 79.17 155.37 75.10 159.91 78.93 157.75
  A 0.93 0.93 -39.7 0 0 79.07 156.23
  C 76.29 153.88 73.28 155.90 73.79 159.14
  C 74.11 161.15 78.16 161.98 78.62 161.05
  A 0.51 0.35 16.1 0 0 78.19 160.53
  L 76.28 160.12
  A 0.86 0.72 89.5 0 1 75.71 159.45"
/>
<path stroke="#81bee3" vector-effect="non-scaling-stroke" d="
  M 85.86 158.26
  C 86.49 154.67 80.83 153.76 81.13 157.44
  A 1.45 1.36 61.1 0 1 80.90 158.34
  C 78.35 162.13 86.55 162.63 85.87 159.24
  Q 85.77 158.74 85.86 158.26"
/>
<path stroke="#81bee3" vector-effect="non-scaling-stroke" d="
  M 89.04 155.75
  Q 89.82 155.73 90.45 156.15
  A 1.21 0.56 41.8 0 0 91.26 156.40
  Q 91.66 156.31 91.63 156.01
  A 0.91 0.61 8.9 0 0 90.97 155.40
  Q 90.01 155.14 89.04 155.50"
/>
<path stroke="#81bee3" vector-effect="non-scaling-stroke" d="
  M 89.04 155.50
  Q 88.11 154.87 87.56 155.81
  Q 86.38 157.82 89.31 158.94
  Q 90.38 159.35 90.34 160.25
  A 0.72 0.40 -86.6 0 0 90.69 160.97
  Q 91.30 161.05 91.95 159.84
  A 1.15 1.14 28.0 0 0 91.47 158.29
  Q 88.47 156.71 89.04 155.75"
/>
<path stroke="#ffffff" vector-effect="non-scaling-stroke" d="
  M 89.04 155.50
  L 89.04 155.75"
/>
<path stroke="#81bee3" vector-effect="non-scaling-stroke" d="
  M 95.88 160.19
  C 94.01 158.89 96.14 154.85 93.78 155.41
  A 0.64 0.57 -11.3 0 0 93.29 156.06
  L 93.90 160.46
  A 0.70 0.68 -2.5 0 0 94.55 161.04
  L 98.68 161.24
  A 0.50 0.39 89.1 0 0 99.08 160.71
  L 98.87 156.31
  A 0.81 0.56 -85.7 0 0 98.47 155.63
  C 95.04 154.41 97.80 158.43 96.64 160.05
  A 0.56 0.55 -54.8 0 1 95.88 160.19"
/>
<path stroke="#81bee3" vector-effect="non-scaling-stroke" d="
  M 103.58 156.90
  C 103.78 156.85 106.60 156.17 105.01 155.44
  C 104.48 155.19 102.20 155.50 101.11 155.49
  A 0.50 0.48 90.0 0 0 100.62 156.00
  L 100.76 160.24
  A 0.91 0.73 -80.7 0 0 101.18 160.98
  Q 103.58 162.16 102.50 158.75
  A 1.45 1.45 -14.7 0 1 103.58 156.90"
/>
<path stroke="#81bee3" vector-effect="non-scaling-stroke" d="
  M 121.82 158.25
  A 3.02 3.02 0.0 0 0 118.80 155.23
  A 3.02 3.02 0.0 0 0 115.78 158.25
  A 3.02 3.02 0.0 0 0 118.80 161.27
  A 3.02 3.02 0.0 0 0 121.82 158.25"
/>
<path stroke="#037cc6" vector-effect="non-scaling-stroke" d="
  M 142.50 161.21
  Q 143.36 161.44 144.00 160.96"
/>
<path stroke="#81bee3" vector-effect="non-scaling-stroke" d="
  M 144.00 160.96
  C 147.39 162.59 145.38 158.11 145.42 156.55
  A 0.92 0.82 -75.1 0 0 145.03 155.78
  Q 143.09 154.57 141.22 155.77
  A 0.89 0.75 73.3 0 0 140.88 156.56
  Q 141.05 158.28 140.25 159.82
  A 0.73 0.61 -55.7 0 0 140.33 160.63
  Q 141.18 161.46 142.50 161.21"
/>
<path stroke="#81bee3" vector-effect="non-scaling-stroke" d="
  M 144.00 160.96
  L 143.76 157.01
  A 1.23 0.69 -83.6 0 0 143.40 156.16
  Q 142.87 155.77 142.35 156.15
  A 0.94 0.90 -22.6 0 0 141.97 157.01
  L 142.50 161.21"
/>
<path stroke="#81bee3" vector-effect="non-scaling-stroke" d="
  M 153.0679 155.9147
  A 0.44 0.44 0.0 0 0 152.6349 155.4679
  L 151.6750 155.4528
  A 0.44 0.44 0.0 0 0 151.2281 155.8858
  L 151.1521 160.7253
  A 0.44 0.44 0.0 0 0 151.5851 161.1721
  L 152.5450 161.1872
  A 0.44 0.44 0.0 0 0 152.9919 160.7542
  L 153.0679 155.9147"
/>
<path stroke="#81bee3" vector-effect="non-scaling-stroke" d="
  M 161.50 160.96
  Q 162.70 161.49 164.00 161.21"
/>
<path stroke="#057cc3" vector-effect="non-scaling-stroke" d="
  M 164.00 161.21
  L 165.64 161.37"
/>
<path stroke="#81bee3" vector-effect="non-scaling-stroke" d="
  M 165.64 161.37
  Q 168.44 160.44 166.71 156.02
  A 0.86 0.62 75.8 0 0 166.04 155.46
  L 162.20 155.60
  A 0.96 0.86 77.9 0 0 161.46 156.88
  Q 162.14 158.76 161.46 160.50"
/>
<path stroke="#81bee3" vector-effect="non-scaling-stroke" d="
  M 161.46 160.50
  Q 159.06 160.85 159.62 157.55
  A 2.02 2.00 22.3 0 0 158.78 155.57
  Q 157.24 154.50 155.45 155.76
  A 0.98 0.84 73.3 0 0 155.10 156.55
  Q 155.17 158.39 154.33 160.02
  A 0.64 0.64 18.1 0 0 154.80 160.94
  Q 158.16 161.47 161.50 160.96"
/>
<path stroke="#ffffff" vector-effect="non-scaling-stroke" d="
  M 161.46 160.50
  L 161.50 160.96"
/>
<path stroke="#83bddf" vector-effect="non-scaling-stroke" d="
  M 165.64 161.37
  C 165.57 159.88 166.17 156.74 164.43 156.25
  A 0.66 0.58 -69.9 0 0 163.72 156.64
  Q 162.71 158.91 164.00 161.21"
/>
<path stroke="#81bee3" vector-effect="non-scaling-stroke" d="
  M 197.00 155.71
  Q 194.87 157.49 195.98 160.11
  A 1.28 1.27 -88.8 0 0 196.62 160.78
  Q 198.57 161.68 200.67 161.10
  A 0.41 0.30 -19.3 0 0 200.98 160.65
  C 200.51 159.72 195.82 161.45 197.79 156.00"
/>
<path stroke="#81bee3" vector-effect="non-scaling-stroke" d="
  M 197.79 156.00
  Q 199.77 155.47 199.62 157.70
  A 0.61 0.49 -84.6 0 0 200.04 158.33
  Q 200.63 158.42 201.00 157.93
  A 1.06 0.84 58.4 0 0 201.11 157.02
  Q 200.12 154.23 197.00 155.71"
/>
<path stroke="#ffffff" vector-effect="non-scaling-stroke" d="
  M 197.79 156.00
  Q 197.52 155.62 197.00 155.71"
/>
<path stroke="#81bee3" vector-effect="non-scaling-stroke" d="
  M 206.00 155.79
  Q 205.78 157.46 206.82 158.24
  A 0.49 0.47 -57.4 0 0 207.52 158.07
  Q 208.58 156.15 206.29 155.50"
/>
<path stroke="#81bee3" vector-effect="non-scaling-stroke" d="
  M 206.29 155.50
  C 201.89 153.97 200.07 161.67 206.25 161.25
  Q 207.09 161.19 207.34 160.79
  Q 207.63 160.31 206.94 160.37
  C 202.71 160.74 203.89 155.14 206.00 155.79"
/>
<path stroke="#ffffff" vector-effect="non-scaling-stroke" d="
  M 206.29 155.50
  Q 206.23 155.73 206.00 155.79"
/>
<path stroke="#81bee3" vector-effect="non-scaling-stroke" d="
  M 34.31 157.08
  Q 35.94 157.07 35.99 156.06
  A 0.55 0.50 1.5 0 0 35.44 155.53
  L 32.06 155.53
  A 0.50 0.37 88.6 0 0 31.70 156.05
  L 31.87 160.66
  A 0.66 0.51 -85.8 0 0 32.26 161.25
  C 34.96 161.98 33.68 159.02 33.77 157.56
  A 0.54 0.51 1.7 0 1 34.31 157.08"
/>
<path stroke="#81bee3" vector-effect="non-scaling-stroke" d="
  M 184.00 160.96
  C 186.80 161.35 187.25 156.48 184.50 155.54"
/>
<path stroke="#81bee3" vector-effect="non-scaling-stroke" d="
  M 184.50 155.54
  C 180.28 154.46 177.82 160.93 184.00 160.96"
/>
<path stroke="#ffffff" vector-effect="non-scaling-stroke" d="
  M 184.50 155.54
  Q 184.35 155.89 184.00 156.04"
/>
<path stroke="#83bddf" vector-effect="non-scaling-stroke" d="
  M 184.00 156.04
  C 181.75 155.90 181.22 160.24 183.96 160.50"
/>
<path stroke="#ffffff" vector-effect="non-scaling-stroke" d="
  M 183.96 160.50
  L 184.00 160.96"
/>
<path stroke="#83bddf" vector-effect="non-scaling-stroke" d="
  M 183.96 160.50
  Q 185.30 158.26 184.00 156.04"
/>
<path stroke="#81bee3" vector-effect="non-scaling-stroke" d="
  M 88.00 160.11
  Q 85.75 159.56 87.50 160.82
  C 88.88 161.82 89.88 160.57 88.00 160.11"
/>
<path stroke="#83bddf" vector-effect="non-scaling-stroke" d="
  M 57.71 53.43
  C 56.44 58.07 55.31 63.14 55.08 67.94
  A 0.70 0.62 -81.4 0 0 55.52 68.62
  Q 56.25 68.84 57.03 68.65
  Q 57.55 68.52 57.98 68.59
  C 60.86 69.05 59.79 67.17 59.71 65.76
  Q 59.34 59.61 58.50 53.48
  Q 58.23 51.54 57.71 53.43"
/>
<path stroke="#83bddf" vector-effect="non-scaling-stroke" d="
  M 101.76 51.75
  C 101.82 47.30 97.88 46.50 94.04 47.89
  A 0.87 0.85 84.9 0 0 93.48 48.57
  Q 92.46 54.76 92.78 61.71
  A 0.47 0.47 72.8 0 0 93.50 62.09
  C 96.59 60.20 101.71 55.72 101.76 51.75"
/>
<path stroke="#83bddf" vector-effect="non-scaling-stroke" d="
  M 152.87 79.88
  A 1.43 1.43 -56.4 0 0 154.30 79.59
  C 161.05 73.38 159.85 57.51 157.18 49.80
  Q 155.90 46.10 154.17 49.61
  C 151.81 54.42 146.87 77.75 152.87 79.88"
/>
<path stroke="#83bddf" vector-effect="non-scaling-stroke" d="
  M 19.41 51.93
  C 19.03 59.46 18.83 67.23 19.00 74.77
  Q 19.07 77.80 20.75 75.28
  C 23.64 70.95 30.17 51.69 19.94 51.44
  A 0.52 0.51 -87.2 0 0 19.41 51.93"
/>
<path stroke="#83bddf" vector-effect="non-scaling-stroke" d="
  M 183.69 97.17
  L 181.17 106.54
  Q 180.59 108.68 182.16 107.08
  C 183.54 105.67 187.16 98.58 185.17 96.77
  A 0.91 0.89 29.0 0 0 183.69 97.17"
/>
<path stroke="#83bddf" vector-effect="non-scaling-stroke" d="
  M 156.6721 123.3839
  A 7.32 2.89 106.9 0 0 161.5652 117.2201
  A 7.32 2.89 106.9 0 0 160.9279 109.3761
  A 7.32 2.89 106.9 0 0 156.0348 115.5399
  A 7.32 2.89 106.9 0 0 156.6721 123.3839"
/>
<path stroke="#83bddf" vector-effect="non-scaling-stroke" d="
  M 193.94 110.94
  Q 192.30 112.77 192.42 116.82
  A 0.44 0.43 84.4 0 0 192.93 117.24
  C 198.63 116.23 198.43 105.92 193.94 110.94"
/>
<path stroke="#81bee3" vector-effect="non-scaling-stroke" d="
  M 27.4915 160.5690
  A 2.31 1.25 91.7 0 0 28.8094 158.2971
  A 2.31 1.25 91.7 0 0 27.6285 155.9510
  A 2.31 1.25 91.7 0 0 26.3106 158.2229
  A 2.31 1.25 91.7 0 0 27.4915 160.5690"
/>
<path stroke="#83bddf" vector-effect="non-scaling-stroke" d="
  M 84.0535 156.7405
  A 0.69 0.69 0.0 0 0 83.3781 156.0362
  L 82.8382 156.0248
  A 0.69 0.69 0.0 0 0 82.1339 156.7002
  L 82.0665 159.9195
  A 0.69 0.69 0.0 0 0 82.7419 160.6238
  L 83.2818 160.6352
  A 0.69 0.69 0.0 0 0 83.9861 159.9598
  L 84.0535 156.7405"
/>
<path stroke="#83bddf" vector-effect="non-scaling-stroke" d="
  M 118.9163 160.6554
  A 2.33 1.29 86.4 0 0 120.0575 158.2490
  A 2.33 1.29 86.4 0 0 118.6237 156.0046
  A 2.33 1.29 86.4 0 0 117.4825 158.4110
  A 2.33 1.29 86.4 0 0 118.9163 160.6554"
/>
<path stroke="#81bee3" vector-effect="non-scaling-stroke" d="
  M 157.9586 156.4947
  A 0.66 0.66 0.0 0 0 157.3021 155.8313
  L 156.8221 155.8288
  A 0.66 0.66 0.0 0 0 156.1587 156.4853
  L 156.1414 159.7853
  A 0.66 0.66 0.0 0 0 156.7979 160.4487
  L 157.2779 160.4512
  A 0.66 0.66 0.0 0 0 157.9413 159.7947
  L 157.9586 156.4947"
/>
</g>
<path fill="#037cc6" d="
  M 0.00 0.00
  L 224.00 0.00
  L 224.00 224.00
  L 0.00 224.00
  L 0.00 0.00
  Z
  M 221.81 11.08
  Q 222.57 11.00 222.09 10.39
  Q 220.13 7.91 221.53 6.52
  C 222.14 5.91 223.37 4.47 221.02 4.87
  Q 218.39 5.32 216.80 2.96
  A 1.16 1.16 -42.5 0 0 214.93 2.88
  C 213.31 4.91 207.45 4.72 210.31 6.69
  A 1.56 1.27 41.2 0 1 210.69 8.94
  Q 209.68 9.74 209.53 10.78
  A 0.67 0.67 87.9 0 0 210.33 11.53
  Q 213.56 10.87 214.93 13.67
  A 0.72 0.72 -40.3 0 0 216.16 13.77
  Q 217.77 11.52 221.81 11.08
  Z
  M 68.55 45.33
  C 67.59 38.71 58.73 36.40 53.27 37.25
  Q 51.30 37.55 50.75 39.46
  C 46.43 54.45 41.45 71.75 40.77 87.25
  A 1.66 1.52 -62.1 0 0 41.01 88.17
  Q 44.22 93.27 50.09 91.70
  A 0.85 0.76 -3.7 0 0 50.69 91.09
  L 52.75 80.30
  A 0.79 0.69 -89.2 0 1 53.29 79.70
  Q 57.15 78.83 61.70 79.62
  A 0.89 0.85 -3.6 0 1 62.39 80.20
  L 64.45 86.34
  Q 65.04 88.10 66.74 88.50
  C 68.68 88.95 71.82 88.76 73.41 88.04
  Q 74.91 87.37 74.50 85.00
  Q 73.31 78.19 68.55 45.33
  Z
  M 93.53 74.91
  C 97.58 80.03 102.49 87.24 109.03 89.59
  A 1.05 1.05 38.6 0 0 109.94 89.49
  Q 112.57 87.80 113.17 84.74
  A 1.65 1.38 41.7 0 0 113.03 83.79
  Q 109.73 77.17 104.71 71.00
  Q 103.40 69.40 104.68 67.77
  C 108.12 63.41 113.79 59.09 113.10 52.52
  C 111.34 35.67 94.41 34.47 82.02 40.10
  A 0.81 0.80 78.4 0 0 81.55 40.82
  Q 81.06 60.69 81.47 80.57
  C 81.51 82.49 81.02 84.85 82.44 86.56
  Q 85.59 90.37 90.52 90.00
  A 1.58 1.53 88.8 0 0 91.94 88.47
  L 92.31 75.30
  Q 92.36 73.45 93.53 74.91
  Z
  M 130.96 39.35
  Q 126.03 36.21 120.53 37.35
  A 0.99 0.98 84.8 0 0 119.75 38.29
  Q 119.14 62.25 119.74 86.25
  A 1.45 1.39 -66.5 0 0 120.07 87.14
  Q 124.26 92.12 130.05 89.70
  A 2.36 2.35 78.8 0 0 131.50 87.52
  L 131.50 40.34
  A 1.18 1.15 -74.2 0 0 130.96 39.35
  Z
  M 163.56 41.19
  C 159.30 37.61 149.13 34.49 145.31 40.56
  C 137.79 52.53 132.94 76.33 146.06 86.69
  Q 150.15 89.91 155.97 90.24
  C 167.16 90.87 171.47 72.45 171.70 64.19
  C 171.96 55.12 170.46 46.97 163.56 41.19
  Z
  M 184.01 37.43
  A 0.43 0.43 0.0 0 0 183.58 37.00
  L 176.68 37.00
  A 0.43 0.43 0.0 0 0 176.25 37.43
  L 176.25 56.57
  A 0.43 0.43 0.0 0 0 176.68 57.00
  L 183.58 57.00
  A 0.43 0.43 0.0 0 0 184.01 56.57
  L 184.01 37.43
  Z
  M 201.58 78.69
  Q 197.86 77.35 195.59 74.13
  Q 193.64 71.37 189.91 73.80
  Q 187.86 75.13 188.36 77.52
  C 189.13 81.22 192.15 84.29 195.27 86.52
  C 210.31 97.25 225.20 78.67 212.81 66.94
  C 208.35 62.72 203.60 60.06 202.41 53.11
  C 202.22 51.95 202.88 49.14 203.77 49.01
  A 1.60 1.59 -6.7 0 1 205.58 50.43
  Q 206.42 59.23 214.32 58.69
  Q 216.10 58.57 217.02 57.05
  Q 218.13 55.22 217.96 52.49
  Q 217.36 43.35 209.76 39.34
  C 203.44 36.00 200.24 36.39 195.38 41.84
  C 190.45 47.37 189.06 54.49 192.74 61.11
  C 194.93 65.06 205.57 72.28 204.91 76.71
  Q 204.45 79.74 201.58 78.69
  Z
  M 8.69 38.92
  Q 7.52 41.65 7.65 44.60
  C 8.26 58.23 7.75 72.14 7.75 85.68
  A 1.50 1.49 -78.8 0 0 8.67 87.06
  C 14.00 89.23 19.41 92.11 24.50 87.50
  C 32.09 80.62 37.51 71.68 37.45 61.25
  C 37.36 46.45 25.28 35.67 10.61 37.49
  A 2.42 2.41 8.2 0 0 8.69 38.92
  Z
  M 166.43 122.77
  C 165.45 119.75 167.94 111.54 168.75 108.24
  Q 169.07 106.98 168.02 107.58
  L 165.63 108.98
  A 2.25 1.90 -34.8 0 1 162.98 108.73
  C 158.41 103.50 151.57 113.67 150.72 117.24
  C 148.54 126.44 136.77 127.48 134.50 118.00
  C 133.03 111.86 134.64 100.24 140.71 96.42
  C 147.48 92.15 145.88 110.23 139.63 106.82
  Q 138.24 106.07 138.48 107.63
  Q 139.18 112.26 142.77 111.61
  C 150.81 110.18 152.09 93.76 142.55 93.86
  C 126.48 94.02 120.61 131.67 141.81 127.72
  Q 146.02 126.93 148.78 124.02
  A 1.14 1.13 55.8 0 1 150.66 124.38
  Q 152.56 129.14 157.46 126.82
  A 3.84 3.82 0.2 0 0 159.29 125.01
  C 160.77 121.97 161.49 121.46 161.75 124.88
  Q 161.95 127.45 164.50 127.93
  A 1.52 1.31 -50.9 0 0 165.45 127.76
  Q 169.12 125.76 171.63 122.36
  C 173.54 119.78 173.84 122.06 173.65 123.45
  Q 172.62 131.05 172.10 138.70
  A 0.45 0.45 -88.3 0 0 172.56 139.19
  Q 174.56 139.16 176.36 138.30
  A 0.95 0.92 81.0 0 0 176.88 137.56
  L 178.01 128.31
  A 0.54 0.54 4.6 0 1 178.57 127.84
  Q 183.65 127.99 186.70 123.61
  Q 187.53 122.42 188.13 123.74
  C 190.63 129.20 195.88 128.71 199.84 125.35
  C 200.81 124.53 204.37 120.85 202.30 120.55
  A 1.14 0.71 -56.7 0 0 201.47 120.93
  C 198.68 123.82 193.35 126.43 192.84 119.81
  A 0.63 0.60 -10.5 0 1 193.30 119.18
  Q 197.80 117.85 200.19 114.44
  C 203.29 110.01 197.86 105.46 193.81 108.31
  Q 188.70 111.91 187.68 118.45
  C 187.24 121.28 184.14 124.96 180.94 123.99
  C 177.49 122.95 179.74 116.25 180.47 112.31
  A 1.94 1.84 -20.9 0 1 180.89 111.43
  C 185.02 106.65 189.03 101.05 186.20 94.45
  A 0.73 0.73 77.1 0 0 185.50 94.01
  C 177.13 94.35 175.95 107.55 175.28 113.71
  Q 175.16 114.87 174.48 115.82
  Q 171.21 120.43 167.93 123.20
  A 0.94 0.94 -29.0 0 1 166.43 122.77
  Z
  M 202.95 96.41
  C 198.52 95.44 197.27 100.74 195.89 103.66
  Q 195.05 105.46 196.78 104.48
  Q 201.35 101.88 203.45 97.42
  A 0.73 0.72 18.9 0 0 202.95 96.41
  Z
  M 21.79 153.20
  C 19.97 155.68 21.37 157.27 20.84 160.26
  A 0.94 0.78 -67.4 0 0 21.10 161.10
  Q 21.93 161.82 22.80 161.25
  A 0.76 0.62 67.6 0 0 23.04 160.46
  Q 22.07 157.26 23.27 154.11
  C 23.49 153.52 25.66 151.70 22.86 152.47
  A 1.99 1.98 -79.2 0 0 21.79 153.20
  Z
  M 46.81 152.44
  C 44.65 151.39 45.90 158.24 45.93 159.19
  A 1.43 0.55 -45.3 0 1 45.57 160.02
  Q 45.03 160.77 47.23 161.29
  Q 48.34 161.56 47.90 160.50
  Q 47.03 158.43 47.75 156.00
  Q 48.55 153.28 46.81 152.44
  Z
  M 125.26 153.86
  Q 128.21 152.48 125.44 152.43
  A 1.63 1.49 25.0 0 0 124.52 152.72
  C 121.95 154.59 123.74 157.55 122.93 160.04
  A 0.61 0.57 -66.5 0 0 123.18 160.75
  C 126.43 162.57 124.73 159.60 124.81 158.52
  Q 124.94 156.54 124.84 154.57
  A 0.76 0.74 76.4 0 1 125.26 153.86
  Z
  M 133.32 152.60
  Q 130.38 151.64 130.89 153.06
  C 131.74 155.43 131.71 157.84 131.12 160.27
  A 0.77 0.65 -68.8 0 0 131.39 161.06
  Q 132.15 161.56 133.00 161.18
  A 0.92 0.60 84.8 0 0 133.39 160.44
  L 133.72 153.27
  A 0.71 0.58 -81.2 0 0 133.32 152.60
  Z
  M 153.0093 152.9665
  A 0.95 0.76 2.2 0 0 152.0892 152.1706
  A 0.95 0.76 2.2 0 0 151.1107 152.8935
  A 0.95 0.76 2.2 0 0 152.0308 153.6894
  A 0.95 0.76 2.2 0 0 153.0093 152.9665
  Z
  M 176.47 160.15
  C 172.47 158.64 173.47 149.88 178.62 154.17
  Q 179.06 154.53 179.11 154.01
  Q 179.29 152.21 175.70 152.28
  Q 173.79 152.31 172.90 154.00
  C 170.46 158.66 174.64 163.90 179.22 159.96
  Q 180.75 158.64 177.94 160.07
  A 1.81 1.79 -47.9 0 1 176.47 160.15
  Z
  M 188.80 152.94
  C 188.14 154.40 186.41 162.10 189.47 161.11
  A 0.59 0.55 75.7 0 0 189.83 160.45
  Q 189.22 157.37 189.94 154.30
  A 1.45 1.28 -14.7 0 1 190.46 153.53
  Q 192.20 152.23 189.86 152.25
  A 1.17 1.16 -77.8 0 0 188.80 152.94
  Z
  M 194.30 153.94
  Q 195.18 153.65 195.45 152.92
  A 0.38 0.36 8.1 0 0 195.07 152.44
  C 190.29 152.67 192.52 157.75 191.67 160.49
  A 0.47 0.47 19.3 0 0 191.95 161.07
  C 194.65 162.10 193.75 160.29 193.74 159.13
  Q 193.71 156.84 193.79 154.56
  A 0.76 0.66 -9.9 0 1 194.30 153.94
  Z
  M 72.0402 153.0393
  A 0.53 0.53 0.0 0 0 71.4965 152.5234
  L 70.8768 152.5396
  A 0.53 0.53 0.0 0 0 70.3608 153.0833
  L 70.5598 160.6807
  A 0.53 0.53 0.0 0 0 71.1035 161.1966
  L 71.7232 161.1804
  A 0.53 0.53 0.0 0 0 72.2392 160.6367
  L 72.0402 153.0393
  Z
  M 149.2120 152.8243
  A 0.27 0.27 0.0 0 0 148.9401 152.5562
  L 147.8201 152.5640
  A 0.27 0.27 0.0 0 0 147.5520 152.8359
  L 147.6080 160.8557
  A 0.27 0.27 0.0 0 0 147.8799 161.1238
  L 148.9999 161.1160
  A 0.27 0.27 0.0 0 0 149.2680 160.8441
  L 149.2120 152.8243
  Z
  M 137.47 154.05
  A 0.79 0.79 25.4 0 0 136.25 154.48
  Q 135.36 157.75 136.61 160.74
  A 0.86 0.61 73.7 0 0 137.30 161.28
  Q 138.28 161.22 137.44 158.34
  A 2.29 2.27 -37.7 0 1 137.68 156.52
  Q 138.67 154.90 137.47 154.05
  Z
  M 43.06 160.19
  Q 41.90 158.23 43.03 155.71
  A 0.87 0.76 -54.2 0 0 42.95 154.85
  C 40.05 151.21 41.08 159.67 41.81 161.00
  A 0.72 0.66 68.8 0 0 42.56 161.37
  Q 43.62 161.13 43.06 160.19
  Z
  M 110.11 160.59
  C 106.51 159.90 107.32 155.74 108.83 155.85
  A 0.71 0.69 -2.1 0 1 109.46 156.42
  Q 109.54 156.85 109.43 157.28
  A 0.86 0.67 -65.6 0 0 109.62 158.09
  Q 111.26 159.45 111.25 157.00
  Q 111.24 154.46 108.19 155.19
  C 103.55 156.30 105.28 162.30 110.12 161.28
  Q 111.81 160.92 110.11 160.59
  Z
  M 30.55 158.22
  A 3.04 3.04 0.0 0 0 27.51 155.18
  A 3.04 3.04 0.0 0 0 24.47 158.22
  A 3.04 3.04 0.0 0 0 27.51 161.26
  A 3.04 3.04 0.0 0 0 30.55 158.22
  Z
  M 49.00 155.95
  Q 50.05 158.07 49.60 160.51
  A 0.68 0.58 -74.8 0 0 49.94 161.22
  C 52.04 162.12 51.90 156.43 49.74 155.24
  Q 48.25 154.43 49.00 155.95
  Z
  M 54.73 155.19
  Q 49.75 160.12 56.11 161.19
  C 56.88 161.32 59.46 160.18 56.00 160.18
  Q 54.66 160.18 54.69 159.01
  Q 54.70 158.46 54.57 158.03
  Q 54.19 156.80 55.04 155.75
  Q 56.56 156.06 56.59 157.44
  A 0.79 0.63 -84.1 0 0 57.03 158.13
  C 59.13 158.83 58.73 155.24 54.73 155.19
  Z
  M 65.54 161.50
  Q 66.11 161.58 66.50 161.21
  C 69.68 161.29 70.95 154.22 63.81 155.55
  A 0.63 0.62 78.1 0 0 63.32 156.31
  Q 64.07 159.37 63.42 162.70
  A 0.63 0.56 -75.1 0 0 63.77 163.40
  Q 65.30 163.92 65.54 161.50
  Z
  M 75.71 159.45
  Q 75.44 157.85 75.90 156.29
  A 0.85 0.74 -83.5 0 1 76.54 155.70
  C 79.17 155.37 75.10 159.91 78.93 157.75
  A 0.93 0.93 -39.7 0 0 79.07 156.23
  C 76.29 153.88 73.28 155.90 73.79 159.14
  C 74.11 161.15 78.16 161.98 78.62 161.05
  A 0.51 0.35 16.1 0 0 78.19 160.53
  L 76.28 160.12
  A 0.86 0.72 89.5 0 1 75.71 159.45
  Z
  M 85.86 158.26
  C 86.49 154.67 80.83 153.76 81.13 157.44
  A 1.45 1.36 61.1 0 1 80.90 158.34
  C 78.35 162.13 86.55 162.63 85.87 159.24
  Q 85.77 158.74 85.86 158.26
  Z
  M 89.04 155.75
  Q 89.82 155.73 90.45 156.15
  A 1.21 0.56 41.8 0 0 91.26 156.40
  Q 91.66 156.31 91.63 156.01
  A 0.91 0.61 8.9 0 0 90.97 155.40
  Q 90.01 155.14 89.04 155.50
  Q 88.11 154.87 87.56 155.81
  Q 86.38 157.82 89.31 158.94
  Q 90.38 159.35 90.34 160.25
  A 0.72 0.40 -86.6 0 0 90.69 160.97
  Q 91.30 161.05 91.95 159.84
  A 1.15 1.14 28.0 0 0 91.47 158.29
  Q 88.47 156.71 89.04 155.75
  Z
  M 95.88 160.19
  C 94.01 158.89 96.14 154.85 93.78 155.41
  A 0.64 0.57 -11.3 0 0 93.29 156.06
  L 93.90 160.46
  A 0.70 0.68 -2.5 0 0 94.55 161.04
  L 98.68 161.24
  A 0.50 0.39 89.1 0 0 99.08 160.71
  L 98.87 156.31
  A 0.81 0.56 -85.7 0 0 98.47 155.63
  C 95.04 154.41 97.80 158.43 96.64 160.05
  A 0.56 0.55 -54.8 0 1 95.88 160.19
  Z
  M 103.58 156.90
  C 103.78 156.85 106.60 156.17 105.01 155.44
  C 104.48 155.19 102.20 155.50 101.11 155.49
  A 0.50 0.48 90.0 0 0 100.62 156.00
  L 100.76 160.24
  A 0.91 0.73 -80.7 0 0 101.18 160.98
  Q 103.58 162.16 102.50 158.75
  A 1.45 1.45 -14.7 0 1 103.58 156.90
  Z
  M 121.82 158.25
  A 3.02 3.02 0.0 0 0 118.80 155.23
  A 3.02 3.02 0.0 0 0 115.78 158.25
  A 3.02 3.02 0.0 0 0 118.80 161.27
  A 3.02 3.02 0.0 0 0 121.82 158.25
  Z
  M 142.50 161.21
  Q 143.36 161.44 144.00 160.96
  C 147.39 162.59 145.38 158.11 145.42 156.55
  A 0.92 0.82 -75.1 0 0 145.03 155.78
  Q 143.09 154.57 141.22 155.77
  A 0.89 0.75 73.3 0 0 140.88 156.56
  Q 141.05 158.28 140.25 159.82
  A 0.73 0.61 -55.7 0 0 140.33 160.63
  Q 141.18 161.46 142.50 161.21
  Z
  M 153.0679 155.9147
  A 0.44 0.44 0.0 0 0 152.6349 155.4679
  L 151.6750 155.4528
  A 0.44 0.44 0.0 0 0 151.2281 155.8858
  L 151.1521 160.7253
  A 0.44 0.44 0.0 0 0 151.5851 161.1721
  L 152.5450 161.1872
  A 0.44 0.44 0.0 0 0 152.9919 160.7542
  L 153.0679 155.9147
  Z
  M 161.50 160.96
  Q 162.70 161.49 164.00 161.21
  L 165.64 161.37
  Q 168.44 160.44 166.71 156.02
  A 0.86 0.62 75.8 0 0 166.04 155.46
  L 162.20 155.60
  A 0.96 0.86 77.9 0 0 161.46 156.88
  Q 162.14 158.76 161.46 160.50
  Q 159.06 160.85 159.62 157.55
  A 2.02 2.00 22.3 0 0 158.78 155.57
  Q 157.24 154.50 155.45 155.76
  A 0.98 0.84 73.3 0 0 155.10 156.55
  Q 155.17 158.39 154.33 160.02
  A 0.64 0.64 18.1 0 0 154.80 160.94
  Q 158.16 161.47 161.50 160.96
  Z
  M 197.00 155.71
  Q 194.87 157.49 195.98 160.11
  A 1.28 1.27 -88.8 0 0 196.62 160.78
  Q 198.57 161.68 200.67 161.10
  A 0.41 0.30 -19.3 0 0 200.98 160.65
  C 200.51 159.72 195.82 161.45 197.79 156.00
  Q 199.77 155.47 199.62 157.70
  A 0.61 0.49 -84.6 0 0 200.04 158.33
  Q 200.63 158.42 201.00 157.93
  A 1.06 0.84 58.4 0 0 201.11 157.02
  Q 200.12 154.23 197.00 155.71
  Z
  M 206.00 155.79
  Q 205.78 157.46 206.82 158.24
  A 0.49 0.47 -57.4 0 0 207.52 158.07
  Q 208.58 156.15 206.29 155.50
  C 201.89 153.97 200.07 161.67 206.25 161.25
  Q 207.09 161.19 207.34 160.79
  Q 207.63 160.31 206.94 160.37
  C 202.71 160.74 203.89 155.14 206.00 155.79
  Z
  M 34.31 157.08
  Q 35.94 157.07 35.99 156.06
  A 0.55 0.50 1.5 0 0 35.44 155.53
  L 32.06 155.53
  A 0.50 0.37 88.6 0 0 31.70 156.05
  L 31.87 160.66
  A 0.66 0.51 -85.8 0 0 32.26 161.25
  C 34.96 161.98 33.68 159.02 33.77 157.56
  A 0.54 0.51 1.7 0 1 34.31 157.08
  Z
  M 184.00 160.96
  C 186.80 161.35 187.25 156.48 184.50 155.54
  C 180.28 154.46 177.82 160.93 184.00 160.96
  Z
  M 88.00 160.11
  Q 85.75 159.56 87.50 160.82
  C 88.88 161.82 89.88 160.57 88.00 160.11
  Z"
/>
<path fill="#ffffff" d="
  M 221.81 11.08
  Q 217.77 11.52 216.16 13.77
  A 0.72 0.72 -40.3 0 1 214.93 13.67
  Q 213.56 10.87 210.33 11.53
  A 0.67 0.67 87.9 0 1 209.53 10.78
  Q 209.68 9.74 210.69 8.94
  A 1.56 1.27 41.2 0 0 210.31 6.69
  C 207.45 4.72 213.31 4.91 214.93 2.88
  A 1.16 1.16 -42.5 0 1 216.80 2.96
  Q 218.39 5.32 221.02 4.87
  C 223.37 4.47 222.14 5.91 221.53 6.52
  Q 220.13 7.91 222.09 10.39
  Q 222.57 11.00 221.81 11.08
  Z"
/>
<path fill="#ffffff" d="
  M 53.27 37.25
  C 58.73 36.40 67.59 38.71 68.55 45.33
  Q 73.31 78.19 74.50 85.00
  Q 74.91 87.37 73.41 88.04
  C 71.82 88.76 68.68 88.95 66.74 88.50
  Q 65.04 88.10 64.45 86.34
  L 62.39 80.20
  A 0.89 0.85 -3.6 0 0 61.70 79.62
  Q 57.15 78.83 53.29 79.70
  A 0.79 0.69 -89.2 0 0 52.75 80.30
  L 50.69 91.09
  A 0.85 0.76 -3.7 0 1 50.09 91.70
  Q 44.22 93.27 41.01 88.17
  A 1.66 1.52 -62.1 0 1 40.77 87.25
  C 41.45 71.75 46.43 54.45 50.75 39.46
  Q 51.30 37.55 53.27 37.25
  Z
  M 57.71 53.43
  C 56.44 58.07 55.31 63.14 55.08 67.94
  A 0.70 0.62 -81.4 0 0 55.52 68.62
  Q 56.25 68.84 57.03 68.65
  Q 57.55 68.52 57.98 68.59
  C 60.86 69.05 59.79 67.17 59.71 65.76
  Q 59.34 59.61 58.50 53.48
  Q 58.23 51.54 57.71 53.43
  Z"
/>
<path fill="#ffffff" d="
  M 93.53 74.91
  Q 92.36 73.45 92.31 75.30
  L 91.94 88.47
  A 1.58 1.53 88.8 0 1 90.52 90.00
  Q 85.59 90.37 82.44 86.56
  C 81.02 84.85 81.51 82.49 81.47 80.57
  Q 81.06 60.69 81.55 40.82
  A 0.81 0.80 78.4 0 1 82.02 40.10
  C 94.41 34.47 111.34 35.67 113.10 52.52
  C 113.79 59.09 108.12 63.41 104.68 67.77
  Q 103.40 69.40 104.71 71.00
  Q 109.73 77.17 113.03 83.79
  A 1.65 1.38 41.7 0 1 113.17 84.74
  Q 112.57 87.80 109.94 89.49
  A 1.05 1.05 38.6 0 1 109.03 89.59
  C 102.49 87.24 97.58 80.03 93.53 74.91
  Z
  M 101.76 51.75
  C 101.82 47.30 97.88 46.50 94.04 47.89
  A 0.87 0.85 84.9 0 0 93.48 48.57
  Q 92.46 54.76 92.78 61.71
  A 0.47 0.47 72.8 0 0 93.50 62.09
  C 96.59 60.20 101.71 55.72 101.76 51.75
  Z"
/>
<path fill="#ffffff" d="
  M 130.96 39.35
  A 1.18 1.15 -74.2 0 1 131.50 40.34
  L 131.50 87.52
  A 2.36 2.35 78.8 0 1 130.05 89.70
  Q 124.26 92.12 120.07 87.14
  A 1.45 1.39 -66.5 0 1 119.74 86.25
  Q 119.14 62.25 119.75 38.29
  A 0.99 0.98 84.8 0 1 120.53 37.35
  Q 126.03 36.21 130.96 39.35
  Z"
/>
<path fill="#ffffff" d="
  M 163.56 41.19
  C 170.46 46.97 171.96 55.12 171.70 64.19
  C 171.47 72.45 167.16 90.87 155.97 90.24
  Q 150.15 89.91 146.06 86.69
  C 132.94 76.33 137.79 52.53 145.31 40.56
  C 149.13 34.49 159.30 37.61 163.56 41.19
  Z
  M 152.87 79.88
  A 1.43 1.43 -56.4 0 0 154.30 79.59
  C 161.05 73.38 159.85 57.51 157.18 49.80
  Q 155.90 46.10 154.17 49.61
  C 151.81 54.42 146.87 77.75 152.87 79.88
  Z"
/>
<rect fill="#ffffff" x="176.25" y="37.00" width="7.76" height="20.00" rx="0.43"/>
<path fill="#ffffff" d="
  M 201.58 78.69
  Q 204.45 79.74 204.91 76.71
  C 205.57 72.28 194.93 65.06 192.74 61.11
  C 189.06 54.49 190.45 47.37 195.38 41.84
  C 200.24 36.39 203.44 36.00 209.76 39.34
  Q 217.36 43.35 217.96 52.49
  Q 218.13 55.22 217.02 57.05
  Q 216.10 58.57 214.32 58.69
  Q 206.42 59.23 205.58 50.43
  A 1.60 1.59 -6.7 0 0 203.77 49.01
  C 202.88 49.14 202.22 51.95 202.41 53.11
  C 203.60 60.06 208.35 62.72 212.81 66.94
  C 225.20 78.67 210.31 97.25 195.27 86.52
  C 192.15 84.29 189.13 81.22 188.36 77.52
  Q 187.86 75.13 189.91 73.80
  Q 193.64 71.37 195.59 74.13
  Q 197.86 77.35 201.58 78.69
  Z"
/>
<path fill="#ffffff" d="
  M 8.69 38.92
  A 2.42 2.41 8.2 0 1 10.61 37.49
  C 25.28 35.67 37.36 46.45 37.45 61.25
  C 37.51 71.68 32.09 80.62 24.50 87.50
  C 19.41 92.11 14.00 89.23 8.67 87.06
  A 1.50 1.49 -78.8 0 1 7.75 85.68
  C 7.75 72.14 8.26 58.23 7.65 44.60
  Q 7.52 41.65 8.69 38.92
  Z
  M 19.41 51.93
  C 19.03 59.46 18.83 67.23 19.00 74.77
  Q 19.07 77.80 20.75 75.28
  C 23.64 70.95 30.17 51.69 19.94 51.44
  A 0.52 0.51 -87.2 0 0 19.41 51.93
  Z"
/>
<path fill="#077bbf" d="
  M 94.04 47.89
  C 97.88 46.50 101.82 47.30 101.76 51.75
  C 101.71 55.72 96.59 60.20 93.50 62.09
  A 0.47 0.47 72.8 0 1 92.78 61.71
  Q 92.46 54.76 93.48 48.57
  A 0.87 0.85 84.9 0 1 94.04 47.89
  Z"
/>
<path fill="#077bbf" d="
  M 152.87 79.88
  C 146.87 77.75 151.81 54.42 154.17 49.61
  Q 155.90 46.10 157.18 49.80
  C 159.85 57.51 161.05 73.38 154.30 79.59
  A 1.43 1.43 -56.4 0 1 152.87 79.88
  Z"
/>
<path fill="#077bbf" d="
  M 19.00 74.77
  C 18.83 67.23 19.03 59.46 19.41 51.93
  A 0.52 0.51 -87.2 0 1 19.94 51.44
  C 30.17 51.69 23.64 70.95 20.75 75.28
  Q 19.07 77.80 19.00 74.77
  Z"
/>
<path fill="#077bbf" d="
  M 55.08 67.94
  C 55.31 63.14 56.44 58.07 57.71 53.43
  Q 58.23 51.54 58.50 53.48
  Q 59.34 59.61 59.71 65.76
  C 59.79 67.17 60.86 69.05 57.98 68.59
  Q 57.55 68.52 57.03 68.65
  Q 56.25 68.84 55.52 68.62
  A 0.70 0.62 -81.4 0 1 55.08 67.94
  Z"
/>
<path fill="#ffffff" d="
  M 166.43 122.77
  A 0.94 0.94 -29.0 0 0 167.93 123.20
  Q 171.21 120.43 174.48 115.82
  Q 175.16 114.87 175.28 113.71
  C 175.95 107.55 177.13 94.35 185.50 94.01
  A 0.73 0.73 77.1 0 1 186.20 94.45
  C 189.03 101.05 185.02 106.65 180.89 111.43
  A 1.94 1.84 -20.9 0 0 180.47 112.31
  C 179.74 116.25 177.49 122.95 180.94 123.99
  C 184.14 124.96 187.24 121.28 187.68 118.45
  Q 188.70 111.91 193.81 108.31
  C 197.86 105.46 203.29 110.01 200.19 114.44
  Q 197.80 117.85 193.30 119.18
  A 0.63 0.60 -10.5 0 0 192.84 119.81
  C 193.35 126.43 198.68 123.82 201.47 120.93
  A 1.14 0.71 -56.7 0 1 202.30 120.55
  C 204.37 120.85 200.81 124.53 199.84 125.35
  C 195.88 128.71 190.63 129.20 188.13 123.74
  Q 187.53 122.42 186.70 123.61
  Q 183.65 127.99 178.57 127.84
  A 0.54 0.54 4.6 0 0 178.01 128.31
  L 176.88 137.56
  A 0.95 0.92 81.0 0 1 176.36 138.30
  Q 174.56 139.16 172.56 139.19
  A 0.45 0.45 -88.3 0 1 172.10 138.70
  Q 172.62 131.05 173.65 123.45
  C 173.84 122.06 173.54 119.78 171.63 122.36
  Q 169.12 125.76 165.45 127.76
  A 1.52 1.31 -50.9 0 1 164.50 127.93
  Q 161.95 127.45 161.75 124.88
  C 161.49 121.46 160.77 121.97 159.29 125.01
  A 3.84 3.82 0.2 0 1 157.46 126.82
  Q 152.56 129.14 150.66 124.38
  A 1.14 1.13 55.8 0 0 148.78 124.02
  Q 146.02 126.93 141.81 127.72
  C 120.61 131.67 126.48 94.02 142.55 93.86
  C 152.09 93.76 150.81 110.18 142.77 111.61
  Q 139.18 112.26 138.48 107.63
  Q 138.24 106.07 139.63 106.82
  C 145.88 110.23 147.48 92.15 140.71 96.42
  C 134.64 100.24 133.03 111.86 134.50 118.00
  C 136.77 127.48 148.54 126.44 150.72 117.24
  C 151.57 113.67 158.41 103.50 162.98 108.73
  A 2.25 1.90 -34.8 0 0 165.63 108.98
  L 168.02 107.58
  Q 169.07 106.98 168.75 108.24
  C 167.94 111.54 165.45 119.75 166.43 122.77
  Z
  M 183.69 97.17
  L 181.17 106.54
  Q 180.59 108.68 182.16 107.08
  C 183.54 105.67 187.16 98.58 185.17 96.77
  A 0.91 0.89 29.0 0 0 183.69 97.17
  Z
  M 156.6721 123.3839
  A 7.32 2.89 106.9 0 0 161.5652 117.2201
  A 7.32 2.89 106.9 0 0 160.9279 109.3761
  A 7.32 2.89 106.9 0 0 156.0348 115.5399
  A 7.32 2.89 106.9 0 0 156.6721 123.3839
  Z
  M 193.94 110.94
  Q 192.30 112.77 192.42 116.82
  A 0.44 0.43 84.4 0 0 192.93 117.24
  C 198.63 116.23 198.43 105.92 193.94 110.94
  Z"
/>
<path fill="#ffffff" d="
  M 202.95 96.41
  A 0.73 0.72 18.9 0 1 203.45 97.42
  Q 201.35 101.88 196.78 104.48
  Q 195.05 105.46 195.89 103.66
  C 197.27 100.74 198.52 95.44 202.95 96.41
  Z"
/>
<path fill="#077bbf" d="
  M 183.69 97.17
  A 0.91 0.89 29.0 0 1 185.17 96.77
  C 187.16 98.58 183.54 105.67 182.16 107.08
  Q 180.59 108.68 181.17 106.54
  L 183.69 97.17
  Z"
/>
<ellipse fill="#077bbf" cx="0.00" cy="0.00" transform="translate(158.80,116.38) rotate(106.9)" rx="7.32" ry="2.89"/>
<path fill="#077bbf" d="
  M 193.94 110.94
  C 198.43 105.92 198.63 116.23 192.93 117.24
  A 0.44 0.43 84.4 0 1 192.42 116.82
  Q 192.30 112.77 193.94 110.94
  Z"
/>
<path fill="#ffffff" d="
  M 21.79 153.20
  A 1.99 1.98 -79.2 0 1 22.86 152.47
  C 25.66 151.70 23.49 153.52 23.27 154.11
  Q 22.07 157.26 23.04 160.46
  A 0.76 0.62 67.6 0 1 22.80 161.25
  Q 21.93 161.82 21.10 161.10
  A 0.94 0.78 -67.4 0 1 20.84 160.26
  C 21.37 157.27 19.97 155.68 21.79 153.20
  Z"
/>
<path fill="#ffffff" d="
  M 46.81 152.44
  Q 48.55 153.28 47.75 156.00
  Q 47.03 158.43 47.90 160.50
  Q 48.34 161.56 47.23 161.29
  Q 45.03 160.77 45.57 160.02
  A 1.43 0.55 -45.3 0 0 45.93 159.19
  C 45.90 158.24 44.65 151.39 46.81 152.44
  Z"
/>
<path fill="#ffffff" d="
  M 124.84 154.57
  Q 124.94 156.54 124.81 158.52
  C 124.73 159.60 126.43 162.57 123.18 160.75
  A 0.61 0.57 -66.5 0 1 122.93 160.04
  C 123.74 157.55 121.95 154.59 124.52 152.72
  A 1.63 1.49 25.0 0 1 125.44 152.43
  Q 128.21 152.48 125.26 153.86
  A 0.76 0.74 76.4 0 0 124.84 154.57
  Z"
/>
<path fill="#ffffff" d="
  M 133.32 152.60
  A 0.71 0.58 -81.2 0 1 133.72 153.27
  L 133.39 160.44
  A 0.92 0.60 84.8 0 1 133.00 161.18
  Q 132.15 161.56 131.39 161.06
  A 0.77 0.65 -68.8 0 1 131.12 160.27
  C 131.71 157.84 131.74 155.43 130.89 153.06
  Q 130.38 151.64 133.32 152.60
  Z"
/>
<ellipse fill="#ffffff" cx="0.00" cy="0.00" transform="translate(152.06,152.93) rotate(2.2)" rx="0.95" ry="0.76"/>
<path fill="#ffffff" d="
  M 176.47 160.15
  A 1.81 1.79 -47.9 0 0 177.94 160.07
  Q 180.75 158.64 179.22 159.96
  C 174.64 163.90 170.46 158.66 172.90 154.00
  Q 173.79 152.31 175.70 152.28
  Q 179.29 152.21 179.11 154.01
  Q 179.06 154.53 178.62 154.17
  C 173.47 149.88 172.47 158.64 176.47 160.15
  Z"
/>
<path fill="#ffffff" d="
  M 188.80 152.94
  A 1.17 1.16 -77.8 0 1 189.86 152.25
  Q 192.20 152.23 190.46 153.53
  A 1.45 1.28 -14.7 0 0 189.94 154.30
  Q 189.22 157.37 189.83 160.45
  A 0.59 0.55 75.7 0 1 189.47 161.11
  C 186.41 162.10 188.14 154.40 188.80 152.94
  Z"
/>
<path fill="#ffffff" d="
  M 193.79 154.56
  Q 193.71 156.84 193.74 159.13
  C 193.75 160.29 194.65 162.10 191.95 161.07
  A 0.47 0.47 19.3 0 1 191.67 160.49
  C 192.52 157.75 190.29 152.67 195.07 152.44
  A 0.38 0.36 8.1 0 1 195.45 152.92
  Q 195.18 153.65 194.30 153.94
  A 0.76 0.66 -9.9 0 0 193.79 154.56
  Z"
/>
<rect fill="#ffffff" x="-0.84" y="-4.33" transform="translate(71.30,156.86) rotate(-1.5)" width="1.68" height="8.66" rx="0.53"/>
<rect fill="#ffffff" x="-0.83" y="-4.28" transform="translate(148.41,156.84) rotate(-0.4)" width="1.66" height="8.56" rx="0.27"/>
<path fill="#ffffff" d="
  M 137.47 154.05
  Q 138.67 154.90 137.68 156.52
  A 2.29 2.27 -37.7 0 0 137.44 158.34
  Q 138.28 161.22 137.30 161.28
  A 0.86 0.61 73.7 0 1 136.61 160.74
  Q 135.36 157.75 136.25 154.48
  A 0.79 0.79 25.4 0 1 137.47 154.05
  Z"
/>
<path fill="#ffffff" d="
  M 43.06 160.19
  Q 43.62 161.13 42.56 161.37
  A 0.72 0.66 68.8 0 1 41.81 161.00
  C 41.08 159.67 40.05 151.21 42.95 154.85
  A 0.87 0.76 -54.2 0 1 43.03 155.71
  Q 41.90 158.23 43.06 160.19
  Z"
/>
<path fill="#ffffff" d="
  M 110.11 160.59
  Q 111.81 160.92 110.12 161.28
  C 105.28 162.30 103.55 156.30 108.19 155.19
  Q 111.24 154.46 111.25 157.00
  Q 111.26 159.45 109.62 158.09
  A 0.86 0.67 -65.6 0 1 109.43 157.28
  Q 109.54 156.85 109.46 156.42
  A 0.71 0.69 -2.1 0 0 108.83 155.85
  C 107.32 155.74 106.51 159.90 110.11 160.59
  Z"
/>
<path fill="#ffffff" d="
  M 30.55 158.22
  A 3.04 3.04 0.0 0 1 27.51 161.26
  A 3.04 3.04 0.0 0 1 24.47 158.22
  A 3.04 3.04 0.0 0 1 27.51 155.18
  A 3.04 3.04 0.0 0 1 30.55 158.22
  Z
  M 27.4915 160.5690
  A 2.31 1.25 91.7 0 0 28.8094 158.2971
  A 2.31 1.25 91.7 0 0 27.6285 155.9510
  A 2.31 1.25 91.7 0 0 26.3106 158.2229
  A 2.31 1.25 91.7 0 0 27.4915 160.5690
  Z"
/>
<path fill="#ffffff" d="
  M 49.00 155.95
  Q 48.25 154.43 49.74 155.24
  C 51.90 156.43 52.04 162.12 49.94 161.22
  A 0.68 0.58 -74.8 0 1 49.60 160.51
  Q 50.05 158.07 49.00 155.95
  Z"
/>
<path fill="#ffffff" d="
  M 55.04 155.75
  L 54.73 155.19
  C 58.73 155.24 59.13 158.83 57.03 158.13
  A 0.79 0.63 -84.1 0 1 56.59 157.44
  Q 56.56 156.06 55.04 155.75
  Z"
/>
<path fill="#ffffff" d="
  M 66.50 161.21
  Q 67.03 159.76 67.19 158.25
  C 67.33 156.96 65.91 154.17 65.00 157.50
  Q 64.77 158.33 65.54 161.50
  Q 65.30 163.92 63.77 163.40
  A 0.63 0.56 -75.1 0 1 63.42 162.70
  Q 64.07 159.37 63.32 156.31
  A 0.63 0.62 78.1 0 1 63.81 155.55
  C 70.95 154.22 69.68 161.29 66.50 161.21
  Z"
/>
<path fill="#ffffff" d="
  M 76.28 160.12
  L 78.19 160.53
  A 0.51 0.35 16.1 0 1 78.62 161.05
  C 78.16 161.98 74.11 161.15 73.79 159.14
  C 73.28 155.90 76.29 153.88 79.07 156.23
  A 0.93 0.93 -39.7 0 1 78.93 157.75
  C 75.10 159.91 79.17 155.37 76.54 155.70
  A 0.85 0.74 -83.5 0 0 75.90 156.29
  Q 75.44 157.85 75.71 159.45
  A 0.86 0.72 89.5 0 0 76.28 160.12
  Z"
/>
<path fill="#ffffff" d="
  M 81.13 157.44
  C 80.83 153.76 86.49 154.67 85.86 158.26
  Q 85.77 158.74 85.87 159.24
  C 86.55 162.63 78.35 162.13 80.90 158.34
  A 1.45 1.36 61.1 0 0 81.13 157.44
  Z
  M 84.0535 156.7405
  A 0.69 0.69 0.0 0 0 83.3781 156.0362
  L 82.8382 156.0248
  A 0.69 0.69 0.0 0 0 82.1339 156.7002
  L 82.0665 159.9195
  A 0.69 0.69 0.0 0 0 82.7419 160.6238
  L 83.2818 160.6352
  A 0.69 0.69 0.0 0 0 83.9861 159.9598
  L 84.0535 156.7405
  Z"
/>
<path fill="#ffffff" d="
  M 89.04 155.50
  L 89.04 155.75
  Q 88.47 156.71 91.47 158.29
  A 1.15 1.14 28.0 0 1 91.95 159.84
  Q 91.30 161.05 90.69 160.97
  A 0.72 0.40 -86.6 0 1 90.34 160.25
  Q 90.38 159.35 89.31 158.94
  Q 86.38 157.82 87.56 155.81
  Q 88.11 154.87 89.04 155.50
  Z"
/>
<path fill="#ffffff" d="
  M 89.04 155.75
  L 89.04 155.50
  Q 90.01 155.14 90.97 155.40
  A 0.91 0.61 8.9 0 1 91.63 156.01
  Q 91.66 156.31 91.26 156.40
  A 1.21 0.56 41.8 0 1 90.45 156.15
  Q 89.82 155.73 89.04 155.75
  Z"
/>
<path fill="#ffffff" d="
  M 96.64 160.05
  C 97.80 158.43 95.04 154.41 98.47 155.63
  A 0.81 0.56 -85.7 0 1 98.87 156.31
  L 99.08 160.71
  A 0.50 0.39 89.1 0 1 98.68 161.24
  L 94.55 161.04
  A 0.70 0.68 -2.5 0 1 93.90 160.46
  L 93.29 156.06
  A 0.64 0.57 -11.3 0 1 93.78 155.41
  C 96.14 154.85 94.01 158.89 95.88 160.19
  A 0.56 0.55 -54.8 0 0 96.64 160.05
  Z"
/>
<path fill="#ffffff" d="
  M 103.58 156.90
  A 1.45 1.45 -14.7 0 0 102.50 158.75
  Q 103.58 162.16 101.18 160.98
  A 0.91 0.73 -80.7 0 1 100.76 160.24
  L 100.62 156.00
  A 0.50 0.48 90.0 0 1 101.11 155.49
  C 102.20 155.50 104.48 155.19 105.01 155.44
  C 106.60 156.17 103.78 156.85 103.58 156.90
  Z"
/>
<path fill="#ffffff" d="
  M 121.82 158.25
  A 3.02 3.02 0.0 0 1 118.80 161.27
  A 3.02 3.02 0.0 0 1 115.78 158.25
  A 3.02 3.02 0.0 0 1 118.80 155.23
  A 3.02 3.02 0.0 0 1 121.82 158.25
  Z
  M 118.9163 160.6554
  A 2.33 1.29 86.4 0 0 120.0575 158.2490
  A 2.33 1.29 86.4 0 0 118.6237 156.0046
  A 2.33 1.29 86.4 0 0 117.4825 158.4110
  A 2.33 1.29 86.4 0 0 118.9163 160.6554
  Z"
/>
<path fill="#ffffff" d="
  M 144.00 160.96
  L 143.76 157.01
  A 1.23 0.69 -83.6 0 0 143.40 156.16
  Q 142.87 155.77 142.35 156.15
  A 0.94 0.90 -22.6 0 0 141.97 157.01
  L 142.50 161.21
  Q 141.18 161.46 140.33 160.63
  A 0.73 0.61 -55.7 0 1 140.25 159.82
  Q 141.05 158.28 140.88 156.56
  A 0.89 0.75 73.3 0 1 141.22 155.77
  Q 143.09 154.57 145.03 155.78
  A 0.92 0.82 -75.1 0 1 145.42 156.55
  C 145.38 158.11 147.39 162.59 144.00 160.96
  Z"
/>
<rect fill="#ffffff" x="-0.92" y="-2.86" transform="translate(152.11,158.32) rotate(0.9)" width="1.84" height="5.72" rx="0.44"/>
<path fill="#ffffff" d="
  M 161.46 160.50
  L 161.50 160.96
  Q 158.16 161.47 154.80 160.94
  A 0.64 0.64 18.1 0 1 154.33 160.02
  Q 155.17 158.39 155.10 156.55
  A 0.98 0.84 73.3 0 1 155.45 155.76
  Q 157.24 154.50 158.78 155.57
  A 2.02 2.00 22.3 0 1 159.62 157.55
  Q 159.06 160.85 161.46 160.50
  Z
  M 157.9586 156.4947
  A 0.66 0.66 0.0 0 0 157.3021 155.8313
  L 156.8221 155.8288
  A 0.66 0.66 0.0 0 0 156.1587 156.4853
  L 156.1414 159.7853
  A 0.66 0.66 0.0 0 0 156.7979 160.4487
  L 157.2779 160.4512
  A 0.66 0.66 0.0 0 0 157.9413 159.7947
  L 157.9586 156.4947
  Z"
/>
<path fill="#ffffff" d="
  M 165.64 161.37
  C 165.57 159.88 166.17 156.74 164.43 156.25
  A 0.66 0.58 -69.9 0 0 163.72 156.64
  Q 162.71 158.91 164.00 161.21
  Q 162.70 161.49 161.50 160.96
  L 161.46 160.50
  Q 162.14 158.76 161.46 156.88
  A 0.96 0.86 77.9 0 1 162.20 155.60
  L 166.04 155.46
  A 0.86 0.62 75.8 0 1 166.71 156.02
  Q 168.44 160.44 165.64 161.37
  Z"
/>
<path fill="#ffffff" d="
  M 197.79 156.00
  Q 197.52 155.62 197.00 155.71
  Q 200.12 154.23 201.11 157.02
  A 1.06 0.84 58.4 0 1 201.00 157.93
  Q 200.63 158.42 200.04 158.33
  A 0.61 0.49 -84.6 0 1 199.62 157.70
  Q 199.77 155.47 197.79 156.00
  Z"
/>
<path fill="#ffffff" d="
  M 206.29 155.50
  Q 206.23 155.73 206.00 155.79
  C 203.89 155.14 202.71 160.74 206.94 160.37
  Q 207.63 160.31 207.34 160.79
  Q 207.09 161.19 206.25 161.25
  C 200.07 161.67 201.89 153.97 206.29 155.50
  Z"
/>
<path fill="#ffffff" d="
  M 33.77 157.56
  C 33.68 159.02 34.96 161.98 32.26 161.25
  A 0.66 0.51 -85.8 0 1 31.87 160.66
  L 31.70 156.05
  A 0.50 0.37 88.6 0 1 32.06 155.53
  L 35.44 155.53
  A 0.55 0.50 1.5 0 1 35.99 156.06
  Q 35.94 157.07 34.31 157.08
  A 0.54 0.51 1.7 0 0 33.77 157.56
  Z"
/>
<path fill="#ffffff" d="
  M 54.73 155.19
  L 55.04 155.75
  Q 54.19 156.80 54.57 158.03
  Q 54.70 158.46 54.69 159.01
  Q 54.66 160.18 56.00 160.18
  C 59.46 160.18 56.88 161.32 56.11 161.19
  Q 49.75 160.12 54.73 155.19
  Z"
/>
<path fill="#ffffff" d="
  M 184.50 155.54
  Q 184.35 155.89 184.00 156.04
  C 181.75 155.90 181.22 160.24 183.96 160.50
  L 184.00 160.96
  C 177.82 160.93 180.28 154.46 184.50 155.54
  Z"
/>
<path fill="#ffffff" d="
  M 184.50 155.54
  C 187.25 156.48 186.80 161.35 184.00 160.96
  L 183.96 160.50
  Q 185.30 158.26 184.00 156.04
  Q 184.35 155.89 184.50 155.54
  Z"
/>
<path fill="#ffffff" d="
  M 206.29 155.50
  Q 208.58 156.15 207.52 158.07
  A 0.49 0.47 -57.4 0 1 206.82 158.24
  Q 205.78 157.46 206.00 155.79
  Q 206.23 155.73 206.29 155.50
  Z"
/>
<rect fill="#037cc6" x="-0.90" y="-2.31" transform="translate(157.05,158.14) rotate(0.3)" width="1.80" height="4.62" rx="0.66"/>
<path fill="#ffffff" d="
  M 197.00 155.71
  Q 197.52 155.62 197.79 156.00
  C 195.82 161.45 200.51 159.72 200.98 160.65
  A 0.41 0.30 -19.3 0 1 200.67 161.10
  Q 198.57 161.68 196.62 160.78
  A 1.28 1.27 -88.8 0 1 195.98 160.11
  Q 194.87 157.49 197.00 155.71
  Z"
/>
<ellipse fill="#037cc6" cx="0.00" cy="0.00" transform="translate(27.56,158.26) rotate(91.7)" rx="2.31" ry="1.25"/>
<path fill="#077bbf" d="
  M 66.50 161.21
  Q 66.11 161.58 65.54 161.50
  Q 64.77 158.33 65.00 157.50
  C 65.91 154.17 67.33 156.96 67.19 158.25
  Q 67.03 159.76 66.50 161.21
  Z"
/>
<rect fill="#077bbf" x="-0.96" y="-2.30" transform="translate(83.06,158.33) rotate(1.2)" width="1.92" height="4.60" rx="0.69"/>
<ellipse fill="#077bbf" cx="0.00" cy="0.00" transform="translate(118.77,158.33) rotate(86.4)" rx="2.33" ry="1.29"/>
<path fill="#037cc6" d="
  M 144.00 160.96
  Q 143.36 161.44 142.50 161.21
  L 141.97 157.01
  A 0.94 0.90 -22.6 0 1 142.35 156.15
  Q 142.87 155.77 143.40 156.16
  A 1.23 0.69 -83.6 0 1 143.76 157.01
  L 144.00 160.96
  Z"
/>
<path fill="#077bbf" d="
  M 165.64 161.37
  L 164.00 161.21
  Q 162.71 158.91 163.72 156.64
  A 0.66 0.58 -69.9 0 1 164.43 156.25
  C 166.17 156.74 165.57 159.88 165.64 161.37
  Z"
/>
<path fill="#077bbf" d="
  M 184.00 156.04
  Q 185.30 158.26 183.96 160.50
  C 181.22 160.24 181.75 155.90 184.00 156.04
  Z"
/>
<path fill="#ffffff" d="
  M 88.00 160.11
  C 89.88 160.57 88.88 161.82 87.50 160.82
  Q 85.75 159.56 88.00 160.11
  Z"
/>
</svg>
